<mxfile host="app.diagrams.net" modified="2024-04-12T11:43:52.207Z" agent="Mozilla/5.0 (Windows NT 10.0; Win64; x64) AppleWebKit/537.36 (KHTML, like Gecko) Chrome/123.0.0.0 Safari/537.36" version="23.1.5" etag="cQaUBdi5C1MWtdPUp-aH" type="github">
  <diagram name="Page-1" id="bRdq4wV9Pq2utyCua6XN">
    <mxGraphModel>
      <root>
        <mxCell id="0" />
        <mxCell id="1" parent="0" />
      </root>
    </mxGraphModel>
  </diagram>
</mxfile>
